<svg width="522" height="72" viewBox="0 0 522 72" fill="none" xmlns="http://www.w3.org/2000/svg">
<path d="M13.625 18.6562C12.8438 18.6562 12.1927 18.474 11.6719 18.1094C11.099 16.8073 11.0729 14.9844 11.5938 12.6406C11.9583 10.5052 13 8.42188 14.7188 6.39062C16.1771 4.72396 17.5833 3.39583 18.9375 2.40625C20.3438 1.36458 21.3333 0.84375 21.9062 0.84375C22.2188 0.84375 22.5573 1.02604 22.9219 1.39062C23.3385 1.75521 23.5729 2.14583 23.625 2.5625C21.8542 3.55208 20.3698 4.72396 19.1719 6.07812C18.026 7.38021 17.3229 8.55208 17.0625 9.59375C16.9062 10.2188 17.2448 11.1302 18.0781 12.3281C18.8594 13.526 19.1719 14.4896 19.0156 15.2188C18.8073 16.1562 18.1562 16.9635 17.0625 17.6406C15.9688 18.3177 14.8229 18.6562 13.625 18.6562ZM3.23438 18.6562C2.45312 18.6562 1.80208 18.474 1.28125 18.1094C0.708333 16.8073 0.682292 14.9844 1.20312 12.6406C1.56771 10.5052 2.60938 8.42188 4.32812 6.39062C5.78646 4.72396 7.19271 3.39583 8.54688 2.40625C9.95312 1.36458 10.9427 0.84375 11.5156 0.84375C11.8281 0.84375 12.1667 1.02604 12.5312 1.39062C12.9479 1.75521 13.1823 2.14583 13.2344 2.5625C11.4635 3.55208 9.97917 4.72396 8.78125 6.07812C7.63542 7.38021 6.93229 8.55208 6.67188 9.59375C6.51562 10.2188 6.85417 11.1302 7.6875 12.3281C8.46875 13.526 8.78125 14.4896 8.625 15.2188C8.41667 16.1562 7.76562 16.9635 6.67188 17.6406C5.57812 18.3177 4.43229 18.6562 3.23438 18.6562ZM61.5938 71.625C58.2604 71.625 54.5885 71.026 50.5781 69.8281C48.651 69.2552 46.4635 68.526 44.0156 67.6406C41.5677 66.8073 39.0156 65.9219 36.3594 64.9844C33.7552 64.099 31.1771 63.2396 28.625 62.4062C26.0729 61.5729 23.7292 60.8958 21.5938 60.375C21.5938 60.1667 21.8021 59.75 22.2188 59.125C22.6875 58.5521 23.0521 58.2135 23.3125 58.1094C25.0312 57.7448 26.9323 57.4323 29.0156 57.1719C31.151 56.9115 33.4427 56.7031 35.8906 56.5469C32.7656 56.0781 30.0052 54.9062 27.6094 53.0312C25.2135 51.1562 23.3385 48.7604 21.9844 45.8438C20.6823 42.875 20.0312 39.5938 20.0312 36C20.0312 31.9896 20.8125 28.0833 22.375 24.2812C23.9375 20.4792 26.0729 17.0417 28.7812 13.9688C31.4896 10.8958 34.5885 8.44792 38.0781 6.625C41.5677 4.80208 45.2135 3.89062 49.0156 3.89062C52.7135 3.89062 55.9688 4.80208 58.7812 6.625C61.5938 8.39583 63.8073 10.8438 65.4219 13.9688C67.0365 17.0938 67.8438 20.6875 67.8438 24.75C67.8438 29.75 66.9323 34.1771 65.1094 38.0312C63.2865 41.8854 60.9427 45.1927 58.0781 47.9531C55.2135 50.7135 52.1406 52.9531 48.8594 54.6719C45.5781 56.3385 42.4792 57.4844 39.5625 58.1094C40.2396 58.2135 41.5677 58.5521 43.5469 59.125C45.526 59.75 48.1302 60.6094 51.3594 61.7031C57.9219 63.8385 62.9479 64.9062 66.4375 64.9062C68.3646 64.9062 70.2917 64.4896 72.2188 63.6562C74.1458 62.8229 75.6302 61.9635 76.6719 61.0781C76.9844 61.1302 77.375 61.3125 77.8438 61.625C78.3646 61.9375 78.625 62.276 78.625 62.6406C78.1042 63.3698 77.2188 64.2292 75.9688 65.2188C74.7708 66.2604 73.3646 67.25 71.75 68.1875C70.1875 69.1771 68.5208 69.9844 66.75 70.6094C64.9792 71.2865 63.2604 71.625 61.5938 71.625ZM40.8125 52.4062C43.3646 52.4062 45.526 51.6771 47.2969 50.2188C49.1198 48.7604 50.6302 46.8594 51.8281 44.5156C53.0781 42.1198 54.0417 39.5417 54.7188 36.7812C55.4479 34.0208 55.9427 31.3385 56.2031 28.7344C56.5156 26.1302 56.6719 23.8906 56.6719 22.0156C56.6719 12.849 53.4948 8.26562 47.1406 8.26562C45.0573 8.26562 43.0521 8.99479 41.125 10.4531C39.25 11.9115 37.5573 13.9688 36.0469 16.625C34.5885 19.2812 33.4427 22.3802 32.6094 25.9219C31.776 29.4115 31.3594 33.2396 31.3594 37.4062C31.3594 40.1146 31.6458 42.6146 32.2188 44.9062C32.8438 47.1458 33.8333 48.9688 35.1875 50.375C36.5938 51.7292 38.4688 52.4062 40.8125 52.4062ZM83.4688 56.4688C80.8646 56.4688 79.5625 54.75 79.5625 51.3125C79.5625 50.1146 79.6406 48.8125 79.7969 47.4062C80.0052 45.9479 80.2917 44.4115 80.6562 42.7969L83 31.9375C83.2083 31 83.3125 30.2708 83.3125 29.75C83.3646 29.2292 83.3906 28.9167 83.3906 28.8125C83.3906 27.5104 83.1302 26.8594 82.6094 26.8594C82.401 26.8594 82.1146 26.9896 81.75 27.25C81.4375 27.4583 81.0729 27.7448 80.6562 28.1094C79.9792 28.6823 79.4062 29.2292 78.9375 29.75C78.5208 30.2708 78.3125 30.5312 78.3125 30.5312C78.2083 30.5312 78 30.2969 77.6875 29.8281C77.4271 29.3073 77.2969 28.9427 77.2969 28.7344C77.7135 28.0052 78.4688 27.1198 79.5625 26.0781C80.6562 25.0365 81.8281 24.099 83.0781 23.2656C84.3281 22.4323 85.3958 22.0156 86.2812 22.0156C87.1146 22.0156 87.7656 22.4062 88.2344 23.1875C88.7031 23.9167 88.9375 24.8802 88.9375 26.0781C88.9375 27.4844 88.7812 28.8646 88.4688 30.2188L85.7344 43.1094C85.5781 43.8385 85.4479 44.5677 85.3438 45.2969C85.2396 45.974 85.1875 46.651 85.1875 47.3281C85.1875 49.5677 85.6823 50.6875 86.6719 50.6875C87.401 50.6875 88.3906 50.1406 89.6406 49.0469C90.8906 47.9531 92.375 46.2865 94.0938 44.0469C95.6042 42.0677 96.9844 39.6719 98.2344 36.8594C99.5365 34.0469 100.474 31.2865 101.047 28.5781L102.375 22.4844C103 22.276 103.807 22.1719 104.797 22.1719C105.786 22.1719 106.672 22.276 107.453 22.4844L102.609 47.7188C102.453 48.3438 102.375 48.9948 102.375 49.6719C102.375 50.974 102.635 51.625 103.156 51.625C103.573 51.625 104.068 51.3906 104.641 50.9219C105.266 50.4531 105.865 49.9323 106.438 49.3594C107.062 48.7344 107.531 48.2396 107.844 47.875L108.312 47.3281C108.417 47.3281 108.599 47.5885 108.859 48.1094C109.172 48.5781 109.328 48.9167 109.328 49.125C108.911 49.8542 108.104 50.8177 106.906 52.0156C105.76 53.1615 104.51 54.2031 103.156 55.1406C101.802 56.026 100.578 56.4688 99.4844 56.4688C98.651 56.4688 98 56.1042 97.5312 55.375C97.0625 54.5938 96.8281 53.6042 96.8281 52.4062C96.8281 51.9896 96.8542 51.4427 96.9062 50.7656C97.0104 50.0885 97.1667 49.2552 97.375 48.2656L98.7812 41.0781C98.5208 41.599 98.1302 42.25 97.6094 43.0312C97.0885 43.8125 96.4115 44.776 95.5781 45.9219C94.5365 47.3802 93.2604 48.9427 91.75 50.6094C90.2396 52.224 88.7292 53.6042 87.2188 54.75C85.7604 55.8958 84.5104 56.4688 83.4688 56.4688ZM123.234 56.3906C120.109 56.3906 117.714 55.375 116.047 53.3438C114.432 51.3125 113.625 48.4219 113.625 44.6719C113.625 41.9635 114.146 39.2812 115.188 36.625C116.229 33.9167 117.583 31.4688 119.25 29.2812C120.969 27.0938 122.818 25.349 124.797 24.0469C126.828 22.6927 128.833 22.0156 130.812 22.0156C133.885 22.0156 136.255 23.0833 137.922 25.2188C139.641 27.3542 140.5 30.2969 140.5 34.0469C140.5 36.7031 139.979 39.3594 138.938 42.0156C137.896 44.6719 136.516 47.0938 134.797 49.2812C133.13 51.4167 131.281 53.1354 129.25 54.4375C127.219 55.7396 125.214 56.3906 123.234 56.3906ZM124.641 53.1875C125.943 53.1875 127.193 52.6406 128.391 51.5469C129.589 50.401 130.63 48.9167 131.516 47.0938C132.453 45.2188 133.182 43.2135 133.703 41.0781C134.276 38.8906 134.562 36.7552 134.562 34.6719C134.562 31.599 134.146 29.2552 133.312 27.6406C132.479 26.026 131.333 25.2188 129.875 25.2188C128.573 25.2188 127.297 25.7917 126.047 26.9375C124.849 28.0312 123.755 29.5156 122.766 31.3906C121.776 33.2135 120.995 35.2188 120.422 37.4062C119.849 39.5417 119.562 41.625 119.562 43.6562C119.562 46.6771 120.031 49.0208 120.969 50.6875C121.958 52.3542 123.182 53.1875 124.641 53.1875ZM151.281 56.4688C150.448 56.4688 149.797 56.1042 149.328 55.375C148.859 54.5938 148.625 53.6042 148.625 52.4062C148.625 51.9896 148.651 51.4427 148.703 50.7656C148.807 50.0885 148.964 49.2552 149.172 48.2656L153.391 26.4688H147.844C147.688 26.4688 147.609 26.1823 147.609 25.6094C147.609 24.9323 147.922 24.125 148.547 23.1875H154.016L155.891 13.6562C155.943 13.1354 157.219 12.875 159.719 12.875C160.448 12.875 160.917 12.901 161.125 12.9531L159.172 23.1875H166.281C166.542 23.1875 166.672 23.526 166.672 24.2031C166.672 24.8281 166.438 25.5833 165.969 26.4688H158.547L154.406 47.7188C154.25 48.3438 154.172 48.9948 154.172 49.6719C154.172 50.974 154.432 51.625 154.953 51.625C155.839 51.625 156.698 51.1562 157.531 50.2188C158.417 49.2292 159.12 48.4479 159.641 47.875L160.109 47.3281C160.214 47.3281 160.396 47.5885 160.656 48.1094C160.969 48.5781 161.125 48.9167 161.125 49.125C160.656 49.8542 159.849 50.8177 158.703 52.0156C157.557 53.1615 156.307 54.2031 154.953 55.1406C153.599 56.026 152.375 56.4688 151.281 56.4688ZM177.297 56.4688C174.589 56.4688 172.505 55.4271 171.047 53.3438C169.641 51.2083 168.938 48.2917 168.938 44.5938C168.938 42.0938 169.458 39.5417 170.5 36.9375C171.542 34.2812 172.922 31.8333 174.641 29.5938C176.359 27.3021 178.234 25.4792 180.266 24.125C182.297 22.7188 184.302 22.0156 186.281 22.0156C188.677 22.0156 190.396 22.6406 191.438 23.8906C192.531 25.0885 193.078 26.4167 193.078 27.875C193.078 30.1146 191.906 32.3802 189.562 34.6719C188 36.1302 186.307 37.4062 184.484 38.5C182.714 39.5417 180.995 40.349 179.328 40.9219C177.661 41.4427 176.255 41.7031 175.109 41.7031C174.901 41.7031 174.797 42.6146 174.797 44.4375C174.797 46.7812 175.24 48.5781 176.125 49.8281C177.062 51.026 178.312 51.625 179.875 51.625C181.281 51.625 182.531 51.2083 183.625 50.375C184.771 49.5417 185.865 48.6042 186.906 47.5625L187.141 47.3281C187.245 47.3281 187.427 47.5885 187.688 48.1094C188 48.5781 188.156 48.9167 188.156 49.125C187.688 49.9583 186.854 50.9479 185.656 52.0938C184.458 53.2396 183.13 54.2552 181.672 55.1406C180.214 56.026 178.755 56.4688 177.297 56.4688ZM175.656 38.9688C176.594 38.9688 177.714 38.6302 179.016 37.9531C180.37 37.276 181.672 36.3906 182.922 35.2969C184.224 34.151 185.292 32.901 186.125 31.5469C187.01 30.1927 187.453 28.8646 187.453 27.5625C187.453 26 186.802 25.2188 185.5 25.2188C184.25 25.2188 183.026 25.7396 181.828 26.7812C180.63 27.7708 179.536 29.0208 178.547 30.5312C177.609 31.9896 176.828 33.474 176.203 34.9844C175.63 36.4948 175.344 37.7188 175.344 38.6562C175.344 38.8646 175.448 38.9688 175.656 38.9688ZM227.453 56.625C223.078 56.625 219.198 55.7396 215.812 53.9688C212.427 52.1458 209.771 49.6979 207.844 46.625C205.917 43.5 204.953 40.0104 204.953 36.1562C204.953 31.7812 205.786 27.6667 207.453 23.8125C209.172 19.9062 211.438 16.4688 214.25 13.5C217.115 10.5312 220.318 8.1875 223.859 6.46875C227.401 4.75 230.995 3.89062 234.641 3.89062C239.849 3.89062 245.24 4.64583 250.812 6.15625C250.812 6.57292 250.786 7.35417 250.734 8.5C250.682 9.64583 250.604 10.8958 250.5 12.25C250.396 13.6042 250.292 14.8021 250.188 15.8438C250.135 16.8854 250.083 17.5104 250.031 17.7188C249.875 18.5 249.12 18.8906 247.766 18.8906C247.557 18.8906 247.219 18.8125 246.75 18.6562C246.229 15.0625 244.927 12.4323 242.844 10.7656C240.76 9.09896 237.87 8.26562 234.172 8.26562C231.203 8.26562 228.599 9.15104 226.359 10.9219C224.12 12.6927 222.245 15.0104 220.734 17.875C219.224 20.7396 218.078 23.8385 217.297 27.1719C216.568 30.4531 216.203 33.6302 216.203 36.7031C216.203 41.1823 217.219 44.9062 219.25 47.875C221.281 50.8438 224.328 52.3281 228.391 52.3281C230.63 52.3281 232.87 52.0156 235.109 51.3906L237.219 41.3125C237.531 39.8021 237.688 38.474 237.688 37.3281C237.688 36.8073 237.323 36.3906 236.594 36.0781C235.865 35.7656 235.057 35.5312 234.172 35.375C233.339 35.2188 232.661 35.1406 232.141 35.1406C232.036 35.1406 231.984 34.9583 231.984 34.5938C231.984 33.3958 232.167 32.6927 232.531 32.4844L244.25 32.9531C245.135 32.9531 248.547 32.7969 254.484 32.4844C254.484 33.5781 254.406 34.3333 254.25 34.75C254.094 35.1667 253.807 35.401 253.391 35.4531C253.026 35.5052 252.505 35.5833 251.828 35.6875C251.203 35.7396 250.422 35.974 249.484 36.3906C248.599 36.9635 248.052 37.6927 247.844 38.5781L245.969 47.25C245.865 47.875 245.76 48.4479 245.656 48.9688C245.552 49.4896 245.5 49.9583 245.5 50.375C245.5 50.7396 245.161 51.2344 244.484 51.8594C243.859 52.4323 243.156 52.9271 242.375 53.3438C238 55.5312 233.026 56.625 227.453 56.625ZM268.469 56.4688C265.76 56.4688 263.677 55.4271 262.219 53.3438C260.812 51.2083 260.109 48.2917 260.109 44.5938C260.109 42.0938 260.63 39.5417 261.672 36.9375C262.714 34.2812 264.094 31.8333 265.812 29.5938C267.531 27.3021 269.406 25.4792 271.438 24.125C273.469 22.7188 275.474 22.0156 277.453 22.0156C279.849 22.0156 281.568 22.6406 282.609 23.8906C283.703 25.0885 284.25 26.4167 284.25 27.875C284.25 30.1146 283.078 32.3802 280.734 34.6719C279.172 36.1302 277.479 37.4062 275.656 38.5C273.885 39.5417 272.167 40.349 270.5 40.9219C268.833 41.4427 267.427 41.7031 266.281 41.7031C266.073 41.7031 265.969 42.6146 265.969 44.4375C265.969 46.7812 266.411 48.5781 267.297 49.8281C268.234 51.026 269.484 51.625 271.047 51.625C272.453 51.625 273.703 51.2083 274.797 50.375C275.943 49.5417 277.036 48.6042 278.078 47.5625L278.312 47.3281C278.417 47.3281 278.599 47.5885 278.859 48.1094C279.172 48.5781 279.328 48.9167 279.328 49.125C278.859 49.9583 278.026 50.9479 276.828 52.0938C275.63 53.2396 274.302 54.2552 272.844 55.1406C271.385 56.026 269.927 56.4688 268.469 56.4688ZM266.828 38.9688C267.766 38.9688 268.885 38.6302 270.188 37.9531C271.542 37.276 272.844 36.3906 274.094 35.2969C275.396 34.151 276.464 32.901 277.297 31.5469C278.182 30.1927 278.625 28.8646 278.625 27.5625C278.625 26 277.974 25.2188 276.672 25.2188C275.422 25.2188 274.198 25.7396 273 26.7812C271.802 27.7708 270.708 29.0208 269.719 30.5312C268.781 31.9896 268 33.474 267.375 34.9844C266.802 36.4948 266.516 37.7188 266.516 38.6562C266.516 38.8646 266.62 38.9688 266.828 38.9688ZM311.125 56.4688C310.292 56.4688 309.641 56.1042 309.172 55.375C308.703 54.5938 308.469 53.6042 308.469 52.4062C308.469 51.9896 308.495 51.4427 308.547 50.7656C308.651 50.0885 308.807 49.2552 309.016 48.2656L311.75 35.375C311.958 34.4896 312.089 33.7083 312.141 33.0312C312.245 32.3021 312.297 31.6771 312.297 31.1562C312.297 28.9167 311.802 27.7969 310.812 27.7969C309.979 27.7969 308.833 28.4219 307.375 29.6719C305.969 30.9219 304.484 32.6146 302.922 34.75C301.359 36.8333 299.927 39.2031 298.625 41.8594C297.375 44.4635 296.438 47.1458 295.812 49.9062L294.484 56C293.859 56.2083 293.052 56.3125 292.062 56.3125C291.073 56.3125 290.188 56.2083 289.406 56L294.016 31.9375C294.224 31 294.328 30.2708 294.328 29.75C294.38 29.2292 294.406 28.9167 294.406 28.8125C294.406 27.5104 294.146 26.8594 293.625 26.8594C293.417 26.8594 293.13 26.9896 292.766 27.25C292.453 27.4583 292.089 27.7448 291.672 28.1094C290.995 28.6823 290.422 29.2292 289.953 29.75C289.536 30.2708 289.328 30.5312 289.328 30.5312C289.224 30.5312 289.016 30.2969 288.703 29.8281C288.443 29.3073 288.312 28.9427 288.312 28.7344C288.729 28.0052 289.484 27.1198 290.578 26.0781C291.672 25.0365 292.844 24.099 294.094 23.2656C295.344 22.4323 296.411 22.0156 297.297 22.0156C298.13 22.0156 298.781 22.4062 299.25 23.1875C299.719 23.9167 299.953 24.8802 299.953 26.0781C299.953 27.1719 299.797 28.5521 299.484 30.2188L298.078 37.4062C298.339 36.9375 298.755 36.3125 299.328 35.5312C299.901 34.6979 300.63 33.7083 301.516 32.5625C302.661 31 304.016 29.4115 305.578 27.7969C307.141 26.1823 308.677 24.8281 310.188 23.7344C311.698 22.5885 312.974 22.0156 314.016 22.0156C316.62 22.0156 317.922 23.7344 317.922 27.1719C317.922 28.3177 317.818 29.6198 317.609 31.0781C317.453 32.4844 317.193 34.0208 316.828 35.6875L314.25 47.7188C314.094 48.3438 314.016 48.9948 314.016 49.6719C314.016 50.974 314.276 51.625 314.797 51.625C315.214 51.625 315.708 51.3906 316.281 50.9219C316.906 50.4531 317.505 49.9323 318.078 49.3594C318.703 48.7344 319.172 48.2396 319.484 47.875L319.953 47.3281C320.057 47.3281 320.24 47.5885 320.5 48.1094C320.812 48.5781 320.969 48.9167 320.969 49.125C320.552 49.8542 319.745 50.8177 318.547 52.0156C317.401 53.1615 316.151 54.2031 314.797 55.1406C313.443 56.026 312.219 56.4688 311.125 56.4688ZM334.484 56.4688C331.776 56.4688 329.693 55.4271 328.234 53.3438C326.828 51.2083 326.125 48.2917 326.125 44.5938C326.125 42.0938 326.646 39.5417 327.688 36.9375C328.729 34.2812 330.109 31.8333 331.828 29.5938C333.547 27.3021 335.422 25.4792 337.453 24.125C339.484 22.7188 341.49 22.0156 343.469 22.0156C345.865 22.0156 347.583 22.6406 348.625 23.8906C349.719 25.0885 350.266 26.4167 350.266 27.875C350.266 30.1146 349.094 32.3802 346.75 34.6719C345.188 36.1302 343.495 37.4062 341.672 38.5C339.901 39.5417 338.182 40.349 336.516 40.9219C334.849 41.4427 333.443 41.7031 332.297 41.7031C332.089 41.7031 331.984 42.6146 331.984 44.4375C331.984 46.7812 332.427 48.5781 333.312 49.8281C334.25 51.026 335.5 51.625 337.062 51.625C338.469 51.625 339.719 51.2083 340.812 50.375C341.958 49.5417 343.052 48.6042 344.094 47.5625L344.328 47.3281C344.432 47.3281 344.615 47.5885 344.875 48.1094C345.188 48.5781 345.344 48.9167 345.344 49.125C344.875 49.9583 344.042 50.9479 342.844 52.0938C341.646 53.2396 340.318 54.2552 338.859 55.1406C337.401 56.026 335.943 56.4688 334.484 56.4688ZM332.844 38.9688C333.781 38.9688 334.901 38.6302 336.203 37.9531C337.557 37.276 338.859 36.3906 340.109 35.2969C341.411 34.151 342.479 32.901 343.312 31.5469C344.198 30.1927 344.641 28.8646 344.641 27.5625C344.641 26 343.99 25.2188 342.688 25.2188C341.438 25.2188 340.214 25.7396 339.016 26.7812C337.818 27.7708 336.724 29.0208 335.734 30.5312C334.797 31.9896 334.016 33.474 333.391 34.9844C332.818 36.4948 332.531 37.7188 332.531 38.6562C332.531 38.8646 332.635 38.9688 332.844 38.9688ZM358.625 56.2344C357.635 56.2344 356.672 56.1562 355.734 56L360.422 31.9375C360.786 30.0625 360.891 28.7604 360.734 28.0312C360.63 27.25 360.396 26.8594 360.031 26.8594C359.823 26.8594 359.536 26.9896 359.172 27.25C358.859 27.4583 358.495 27.7448 358.078 28.1094C357.401 28.6823 356.828 29.2292 356.359 29.75C355.943 30.2708 355.734 30.5312 355.734 30.5312C355.63 30.5312 355.422 30.2969 355.109 29.8281C354.849 29.3073 354.719 28.9427 354.719 28.7344C355.135 28.0052 355.891 27.1198 356.984 26.0781C358.078 25.0365 359.25 24.099 360.5 23.2656C361.75 22.4323 362.818 22.0156 363.703 22.0156C364.536 22.0156 365.188 22.4062 365.656 23.1875C366.125 23.9167 366.359 24.8802 366.359 26.0781C366.359 27.1719 366.203 28.5521 365.891 30.2188L364.641 36.7812C365.318 35.2708 366.125 33.7083 367.062 32.0938C368.052 30.4271 369.198 28.7604 370.5 27.0938C373 23.7083 375.24 22.0156 377.219 22.0156C378.833 22.0156 380.188 22.849 381.281 24.5156C381.281 28.0052 380.344 29.75 378.469 29.75C378.052 29.75 377.688 29.5938 377.375 29.2812C377.115 28.9167 376.802 28.5781 376.438 28.2656C376.125 27.9531 375.682 27.7969 375.109 27.7969C374.328 27.7969 373.312 28.4219 372.062 29.6719C370.865 30.9219 369.615 32.5625 368.312 34.5938C367.01 36.625 365.839 38.8125 364.797 41.1562C363.807 43.4479 363.104 45.6615 362.688 47.7969L361.203 56C360.37 56.1562 359.51 56.2344 358.625 56.2344ZM399.328 56.4688C398.495 56.4688 397.844 56.1042 397.375 55.375C396.906 54.5938 396.672 53.6042 396.672 52.4062C396.672 51.9896 396.698 51.4427 396.75 50.7656C396.854 50.0365 397.01 49.2031 397.219 48.2656L397.609 46.2344C396.932 47.4844 395.995 48.9167 394.797 50.5312C393.599 52.0938 392.271 53.474 390.812 54.6719C389.406 55.8177 388 56.3906 386.594 56.3906C384.302 56.3906 382.479 55.375 381.125 53.3438C379.823 51.2604 379.172 48.7604 379.172 45.8438C379.172 42.9271 379.823 40.0625 381.125 37.25C382.427 34.4375 384.146 31.8854 386.281 29.5938C388.469 27.3021 390.891 25.4792 393.547 24.125C396.203 22.7188 398.859 22.0156 401.516 22.0156C403.599 22.0156 405.5 22.3542 407.219 23.0312L402.688 46.5469C402.531 47.4323 402.401 48.1094 402.297 48.5781C402.245 48.9948 402.219 49.4375 402.219 49.9062C402.219 51.0521 402.479 51.625 403 51.625C403.417 51.625 403.911 51.3906 404.484 50.9219C405.109 50.4531 405.708 49.9323 406.281 49.3594C406.906 48.7344 407.375 48.2396 407.688 47.875L408.156 47.3281C408.26 47.3281 408.443 47.5885 408.703 48.1094C409.016 48.5781 409.172 48.9167 409.172 49.125C408.755 49.8542 407.974 50.8177 406.828 52.0156C405.682 53.1615 404.432 54.2031 403.078 55.1406C401.724 56.026 400.474 56.4688 399.328 56.4688ZM388.938 51.8594C389.927 51.8594 390.969 51.3385 392.062 50.2969C393.156 49.2552 394.224 47.875 395.266 46.1562C396.307 44.4375 397.245 42.5625 398.078 40.5312C398.911 38.5 399.51 36.5208 399.875 34.5938L401.438 26.625C400.812 25.9479 399.745 25.6094 398.234 25.6094C396.672 25.6094 395.109 26.1562 393.547 27.25C391.984 28.3438 390.552 29.8021 389.25 31.625C387.948 33.3958 386.906 35.401 386.125 37.6406C385.344 39.8281 384.953 42.0156 384.953 44.2031C384.953 49.3073 386.281 51.8594 388.938 51.8594ZM420.734 56.4688C419.901 56.4688 419.25 56.1042 418.781 55.375C418.312 54.5938 418.078 53.6042 418.078 52.4062C418.078 51.9896 418.104 51.4427 418.156 50.7656C418.26 50.0885 418.417 49.2552 418.625 48.2656L422.844 26.4688H417.297C417.141 26.4688 417.062 26.1823 417.062 25.6094C417.062 24.9323 417.375 24.125 418 23.1875H423.469L425.344 13.6562C425.396 13.1354 426.672 12.875 429.172 12.875C429.901 12.875 430.37 12.901 430.578 12.9531L428.625 23.1875H435.734C435.995 23.1875 436.125 23.526 436.125 24.2031C436.125 24.8281 435.891 25.5833 435.422 26.4688H428L423.859 47.7188C423.703 48.3438 423.625 48.9948 423.625 49.6719C423.625 50.974 423.885 51.625 424.406 51.625C425.292 51.625 426.151 51.1562 426.984 50.2188C427.87 49.2292 428.573 48.4479 429.094 47.875L429.562 47.3281C429.667 47.3281 429.849 47.5885 430.109 48.1094C430.422 48.5781 430.578 48.9167 430.578 49.125C430.109 49.8542 429.302 50.8177 428.156 52.0156C427.01 53.1615 425.76 54.2031 424.406 55.1406C423.052 56.026 421.828 56.4688 420.734 56.4688ZM448.156 56.3906C445.031 56.3906 442.635 55.375 440.969 53.3438C439.354 51.3125 438.547 48.4219 438.547 44.6719C438.547 41.9635 439.068 39.2812 440.109 36.625C441.151 33.9167 442.505 31.4688 444.172 29.2812C445.891 27.0938 447.74 25.349 449.719 24.0469C451.75 22.6927 453.755 22.0156 455.734 22.0156C458.807 22.0156 461.177 23.0833 462.844 25.2188C464.562 27.3542 465.422 30.2969 465.422 34.0469C465.422 36.7031 464.901 39.3594 463.859 42.0156C462.818 44.6719 461.438 47.0938 459.719 49.2812C458.052 51.4167 456.203 53.1354 454.172 54.4375C452.141 55.7396 450.135 56.3906 448.156 56.3906ZM449.562 53.1875C450.865 53.1875 452.115 52.6406 453.312 51.5469C454.51 50.401 455.552 48.9167 456.438 47.0938C457.375 45.2188 458.104 43.2135 458.625 41.0781C459.198 38.8906 459.484 36.7552 459.484 34.6719C459.484 31.599 459.068 29.2552 458.234 27.6406C457.401 26.026 456.255 25.2188 454.797 25.2188C453.495 25.2188 452.219 25.7917 450.969 26.9375C449.771 28.0312 448.677 29.5156 447.688 31.3906C446.698 33.2135 445.917 35.2188 445.344 37.4062C444.771 39.5417 444.484 41.625 444.484 43.6562C444.484 46.6771 444.953 49.0208 445.891 50.6875C446.88 52.3542 448.104 53.1875 449.562 53.1875ZM475.266 56.2344C474.276 56.2344 473.312 56.1562 472.375 56L477.062 31.9375C477.427 30.0625 477.531 28.7604 477.375 28.0312C477.271 27.25 477.036 26.8594 476.672 26.8594C476.464 26.8594 476.177 26.9896 475.812 27.25C475.5 27.4583 475.135 27.7448 474.719 28.1094C474.042 28.6823 473.469 29.2292 473 29.75C472.583 30.2708 472.375 30.5312 472.375 30.5312C472.271 30.5312 472.062 30.2969 471.75 29.8281C471.49 29.3073 471.359 28.9427 471.359 28.7344C471.776 28.0052 472.531 27.1198 473.625 26.0781C474.719 25.0365 475.891 24.099 477.141 23.2656C478.391 22.4323 479.458 22.0156 480.344 22.0156C481.177 22.0156 481.828 22.4062 482.297 23.1875C482.766 23.9167 483 24.8802 483 26.0781C483 27.1719 482.844 28.5521 482.531 30.2188L481.281 36.7812C481.958 35.2708 482.766 33.7083 483.703 32.0938C484.693 30.4271 485.839 28.7604 487.141 27.0938C489.641 23.7083 491.88 22.0156 493.859 22.0156C495.474 22.0156 496.828 22.849 497.922 24.5156C497.922 28.0052 496.984 29.75 495.109 29.75C494.693 29.75 494.328 29.5938 494.016 29.2812C493.755 28.9167 493.443 28.5781 493.078 28.2656C492.766 27.9531 492.323 27.7969 491.75 27.7969C490.969 27.7969 489.953 28.4219 488.703 29.6719C487.505 30.9219 486.255 32.5625 484.953 34.5938C483.651 36.625 482.479 38.8125 481.438 41.1562C480.448 43.4479 479.745 45.6615 479.328 47.7969L477.844 56C477.01 56.1562 476.151 56.2344 475.266 56.2344ZM510.344 18.5781C510.031 18.5781 509.667 18.3958 509.25 18.0312C508.885 17.6667 508.677 17.276 508.625 16.8594C510.604 15.7135 512.115 14.4635 513.156 13.1094C514.25 11.7031 514.901 10.5833 515.109 9.75C515.266 9.125 514.927 8.1875 514.094 6.9375C513.312 5.73958 513 4.80208 513.156 4.125C513.365 3.1875 514.016 2.40625 515.109 1.78125C516.255 1.10417 517.427 0.765625 518.625 0.765625C519.354 0.765625 519.979 0.947917 520.5 1.3125C521.021 2.45833 521.021 4.28125 520.5 6.78125C520.135 8.91667 519.12 10.974 517.453 12.9531C515.995 14.6719 514.589 16.0521 513.234 17.0938C511.88 18.0833 510.917 18.5781 510.344 18.5781ZM499.328 18.5781C499.016 18.5781 498.651 18.3958 498.234 18.0312C497.87 17.6667 497.661 17.276 497.609 16.8594C499.589 15.7135 501.099 14.4635 502.141 13.1094C503.234 11.7031 503.885 10.5833 504.094 9.75C504.25 9.125 503.911 8.1875 503.078 6.9375C502.297 5.73958 501.984 4.80208 502.141 4.125C502.349 3.1875 503 2.40625 504.094 1.78125C505.24 1.10417 506.411 0.765625 507.609 0.765625C508.339 0.765625 508.964 0.947917 509.484 1.3125C510.005 2.45833 510.005 4.28125 509.484 6.78125C509.12 8.91667 508.104 10.974 506.438 12.9531C504.979 14.6719 503.573 16.0521 502.219 17.0938C500.865 18.0833 499.901 18.5781 499.328 18.5781Z" fill="#291B00"/>
</svg>
