<svg width="26" height="22" viewBox="0 0 26 22" fill="none" xmlns="http://www.w3.org/2000/svg">
<path d="M22.9302 5.90798C22.9461 6.13005 22.9461 6.35217 22.9461 6.57424C22.9461 13.3477 17.7907 21.1523 8.36808 21.1523C5.46515 21.1523 2.76847 20.3115 0.500061 18.8522C0.912512 18.8997 1.30905 18.9156 1.73737 18.9156C4.13263 18.9156 6.33761 18.1066 8.0984 16.7265C5.84586 16.6789 3.95817 15.2037 3.30778 13.1732C3.62506 13.2208 3.9423 13.2525 4.27545 13.2525C4.73546 13.2525 5.19552 13.189 5.62379 13.0781C3.27609 12.6021 1.51525 10.54 1.51525 8.04949V7.98606C2.19733 8.36677 2.99054 8.60471 3.83121 8.6364C2.45114 7.71633 1.54698 6.14592 1.54698 4.36926C1.54698 3.4175 1.80074 2.54504 2.24493 1.78362C4.76715 4.89275 8.55841 6.92317 12.8096 7.14529C12.7303 6.76457 12.6827 6.36804 12.6827 5.97146C12.6827 3.14783 14.967 0.847729 17.8065 0.847729C19.2817 0.847729 20.6142 1.46638 21.5501 2.46575C22.7081 2.24368 23.8185 1.81536 24.802 1.22844C24.4213 2.41819 23.6123 3.41755 22.5495 4.05203C23.5806 3.94104 24.5799 3.65544 25.5 3.25891C24.8021 4.2741 23.9296 5.17825 22.9302 5.90798Z" fill="white"/>
</svg>
